<svg width="24" height="24" viewBox="0 0 24 24" fill="none" xmlns="http://www.w3.org/2000/svg">
<path d="M6.25 5H5.5C4.67157 5 4 5.67157 4 6.5V19.5C4 20.3284 4.67157 21 5.5 21H18.5C19.3284 21 20 20.3284 20 19.5V6.5C20 5.67157 19.3284 5 18.5 5H17.75H14M6.25 5H8.5C9.32843 5 10 4.32843 10 3.5V3.5C10 2.67157 10.6716 2 11.5 2H12.5C13.3284 2 14 2.67157 14 3.5V5M6.25 5H14" stroke="#202030" stroke-width="2" stroke-linecap="round" stroke-linejoin="round"/>
<path d="M8 11H12" stroke="#202030" stroke-width="2" stroke-linecap="round" stroke-linejoin="round"/>
<path d="M8 16H16" stroke="#202030" stroke-width="2" stroke-linecap="round" stroke-linejoin="round"/>
</svg>
