<svg width="24" height="24" viewBox="0 0 24 24" fill="none" xmlns="http://www.w3.org/2000/svg">
<path fill-rule="evenodd" clip-rule="evenodd" d="M12 10C13.1046 10 14 9.10457 14 8C14 6.89543 13.1046 6 12 6C10.8954 6 10 6.89543 10 8C10 9.10457 10.8954 10 12 10Z" fill="#202030"/>
<path fill-rule="evenodd" clip-rule="evenodd" d="M12 3C14.7614 3 17 5.04183 17 7.56057C17 11 13.1985 14.673 12.2252 15.8959C12.1726 15.9613 12.0889 16 12 16C11.9111 16 11.8274 15.9613 11.7748 15.8959C10.8015 14.673 7 11 7 7.56057C7 5.04183 9.23858 3 12 3Z" stroke="#202030" stroke-width="2" stroke-linecap="round" stroke-linejoin="round"/>
<path d="M16.5554 17C18.637 17.3959 20 18.0567 20 18.8046C20 20.0172 16.419 21 12 21C7.58095 21 4 20.0172 4 18.8046C4 18.0582 5.35695 17.3988 7.42857 17.0022" stroke="#202030" stroke-width="2" stroke-linecap="round" stroke-linejoin="round"/>
</svg>
