<svg width="24" height="24" viewBox="0 0 24 24" fill="none" xmlns="http://www.w3.org/2000/svg">
<path fill-rule="evenodd" clip-rule="evenodd" d="M5.25 6.25C7.73528 6.25 9.75 8.26472 9.75 10.75C9.75 12.671 7.062 16.326 5.841 17.888C5.69886 18.0699 5.48086 18.1762 5.25 18.1762C5.01914 18.1762 4.80114 18.0699 4.659 17.888C3.438 16.327 0.75 12.671 0.75 10.75C0.75 8.26472 2.76472 6.25 5.25 6.25Z" fill="white" stroke="#202030" stroke-width="1.5" stroke-linecap="round" stroke-linejoin="round"/>
<path fill-rule="evenodd" clip-rule="evenodd" d="M23.25 5.5C23.25 7.2 20.713 11.178 19.813 12.536C19.7435 12.6407 19.6262 12.7037 19.5005 12.7037C19.3748 12.7037 19.2575 12.6407 19.188 12.536C18.287 11.179 15.75 7.2 15.75 5.5C15.75 3.42893 17.4289 1.75 19.5 1.75C21.5711 1.75 23.25 3.42893 23.25 5.5Z" fill="#FF9330" stroke="#202030" stroke-width="1.5" stroke-linecap="round" stroke-linejoin="round"/>
<path d="M19.5 5.125C19.7071 5.125 19.875 5.29289 19.875 5.5" stroke="#202030" stroke-width="1.5" stroke-linecap="round" stroke-linejoin="round"/>
<path d="M19.125 5.5C19.125 5.29289 19.2929 5.125 19.5 5.125" stroke="#202030" stroke-width="1.5" stroke-linecap="round" stroke-linejoin="round"/>
<path d="M19.5 5.875C19.2929 5.875 19.125 5.70711 19.125 5.5" stroke="#202030" stroke-width="1.5" stroke-linecap="round" stroke-linejoin="round"/>
<path d="M19.875 5.5C19.875 5.70711 19.7071 5.875 19.5 5.875" stroke="#202030" stroke-width="1.5" stroke-linecap="round" stroke-linejoin="round"/>
<path d="M5.25 10.375C5.45711 10.375 5.625 10.5429 5.625 10.75" stroke="#202030" stroke-width="1.5" stroke-linecap="round" stroke-linejoin="round"/>
<path d="M4.875 10.75C4.875 10.5429 5.04289 10.375 5.25 10.375" stroke="#202030" stroke-width="1.5" stroke-linecap="round" stroke-linejoin="round"/>
<path d="M5.25 11.125C5.04289 11.125 4.875 10.9571 4.875 10.75" stroke="#202030" stroke-width="1.5" stroke-linecap="round" stroke-linejoin="round"/>
<path d="M5.625 10.75C5.625 10.9571 5.45711 11.125 5.25 11.125" stroke="#202030" stroke-width="1.5" stroke-linecap="round" stroke-linejoin="round"/>
<path d="M5.25 22.25H14.25C15.0784 22.25 15.75 21.5784 15.75 20.75V18.25C15.75 17.4216 16.4216 16.75 17.25 16.75H20.25" stroke="#202030" stroke-width="1.5" stroke-linecap="round" stroke-linejoin="round"/>
</svg>
